# xmcd
#
# Track frame offsets: 
#        150
#        23583
#        43897
#        65723
#        89081
#        110221
#        131685
#        153612
#        176838
#        201330
#        221813
#        239930
#        261085
#
# Disc length: 3769 seconds
#
# Revision: 3
# Processed by: cddbd v1.5.2PL0 Copyright (c) Steve Scherf et al.
# Submitted via: ExactAudioCopyFreeDBPlugin 1.0
#
DISCID=d80eb70d
DTITLE=群星 - DTSES声声烧低音女声版
DYEAR=2010
DGENRE=DTS ES
TTITLE0=一世情缘
TTITLE1=白月光
TTITLE2=海恋
TTITLE3=从现在到开始
TTITLE4=把悲伤留给自己
TTITLE5=天堂
TTITLE6=家乡
TTITLE7=吻别
TTITLE8=城里的月光
TTITLE9=赞歌
TTITLE10=在银色的月光下
TTITLE11=忘不了
TTITLE12=别让我一个人醉
EXTD=
EXTT0=
EXTT1=
EXTT2=
EXTT3=
EXTT4=
EXTT5=
EXTT6=
EXTT7=
EXTT8=
EXTT9=
EXTT10=
EXTT11=
EXTT12=
PLAYORDER=
